<?xml version="1.0" encoding="iso-8859-1"?>
<!-- Uploaded to: SVG Repo, www.svgrepo.com, Generator: SVG Repo Mixer Tools -->
<svg version="1.1" id="Layer_1" xmlns="http://www.w3.org/2000/svg" xmlns:xlink="http://www.w3.org/1999/xlink" 
	 viewBox="0 0 512 512" xml:space="preserve">
<polygon style="fill:#D7D7D7;" points="344.956,512 150.353,512 174.468,350.362 320.84,350.362 "/>
<polygon style="fill:#B0B0B0;" points="344.956,512 247.533,512 247.654,350.362 320.84,350.362 "/>
<polygon style="fill:#8B8B8B;" points="419.47,91.793 386.079,91.793 386.079,66.425 364.601,66.425 364.601,33.034 419.47,33.034 
	"/>
<path style="fill:#F7F7F8;" d="M362.549,204.645H132.756L107.833,0h279.644L362.549,204.645z"/>
<path style="fill:#D7D7D7;" d="M362.549,204.645H247.654V0h139.822L362.549,204.645z"/>
<path style="fill:#F7F7F8;" d="M247.656,381.546c-76.668,0-139.04-62.373-139.04-139.039h278.079
	C386.695,319.173,324.322,381.546,247.656,381.546z"/>
<g>
	<path style="fill:#D7D7D7;" d="M247.656,381.546c0-44.739-0.122-62.373-0.122-139.039h139.162
		C386.695,319.173,324.322,381.546,247.656,381.546z"/>
	<rect x="92.53" y="222.23" style="fill:#D7D7D7;" width="310.239" height="33.391"/>
</g>
<rect x="247.532" y="222.23" style="fill:#B0B0B0;" width="155.236" height="33.391"/>
</svg>